HIERARCHY
ROOT SimulationBone
{
	OFFSET 0.000000 0.000000 0.000000
	CHANNELS 6 Xposition Yposition Zposition Zrotation Yrotation Xrotation 
	JOINT Hips
	{
		OFFSET 0.000000 0.000000 0.000000
		CHANNELS 6 Xposition Yposition Zposition Zrotation Yrotation Xrotation 
		JOINT LeftUpLeg
		{
			OFFSET 0.103458 1.857835 10.548497
			CHANNELS 3 Zrotation Yrotation Xrotation
			JOINT LeftLeg
			{
				OFFSET 43.500000 -0.000034 -0.000013
				CHANNELS 3 Zrotation Yrotation Xrotation
				JOINT LeftFoot
				{
					OFFSET 42.372192 0.000011 0.000010
					CHANNELS 3 Zrotation Yrotation Xrotation
					JOINT LeftToe
					{
						OFFSET 17.299994 -0.000002 -0.000009
						CHANNELS 3 Zrotation Yrotation Xrotation
						End Site
						{
							OFFSET 0.000000 0.000000 0.000000
						}
					}
				}
			}
		}
		JOINT RightUpLeg
		{
			OFFSET 0.103456 1.857832 -10.548508
			CHANNELS 3 Zrotation Yrotation Xrotation
			JOINT RightLeg
			{
				OFFSET 43.500038 -0.000027 0.000004
				CHANNELS 3 Zrotation Yrotation Xrotation
				JOINT RightFoot
				{
					OFFSET 42.372261 -0.000011 0.000014
					CHANNELS 3 Zrotation Yrotation Xrotation
					JOINT RightToe
					{
						OFFSET 17.299995 -0.000004 0.000011
						CHANNELS 3 Zrotation Yrotation Xrotation
						End Site
						{
							OFFSET 0.000000 0.000000 0.000000
						}
					}
				}
			}
		}
		JOINT Spine
		{
			OFFSET 6.901970 -2.603727 -0.000002
			CHANNELS 3 Zrotation Yrotation Xrotation
			JOINT Spine1
			{
				OFFSET 12.588097 -0.000001 0.000008
				CHANNELS 3 Zrotation Yrotation Xrotation
				JOINT Spine2
				{
					OFFSET 12.343203 0.000000 -0.000005
					CHANNELS 3 Zrotation Yrotation Xrotation
					JOINT Neck
					{
						OFFSET 25.832903 -0.000002 -0.000005
						CHANNELS 3 Zrotation Yrotation Xrotation
						JOINT Head
						{
							OFFSET 11.766603 0.000011 -0.000000
							CHANNELS 3 Zrotation Yrotation Xrotation
							End Site
							{
								OFFSET 0.000000 0.000000 0.000000
							}
						}
					}
					JOINT LeftShoulder
					{
						OFFSET 19.745899 -1.480377 6.000100
						CHANNELS 3 Zrotation Yrotation Xrotation
						JOINT LeftArm
						{
							OFFSET 11.284134 -0.000021 -0.000017
							CHANNELS 3 Zrotation Yrotation Xrotation
							JOINT LeftForeArm
							{
								OFFSET 33.000053 0.000002 0.000032
								CHANNELS 3 Zrotation Yrotation Xrotation
								JOINT LeftHand
								{
									OFFSET 25.200005 0.000020 0.000008
									CHANNELS 3 Zrotation Yrotation Xrotation
									End Site
									{
										OFFSET 0.000000 0.000000 0.000000
									}
								}
							}
						}
					}
					JOINT RightShoulder
					{
						OFFSET 19.746092 -1.480377 -6.000073
						CHANNELS 3 Zrotation Yrotation Xrotation
						JOINT RightArm
						{
							OFFSET 11.284133 -0.000016 -0.000019
							CHANNELS 3 Zrotation Yrotation Xrotation
							JOINT RightForeArm
							{
								OFFSET 33.000092 0.000022 0.000006
								CHANNELS 3 Zrotation Yrotation Xrotation
								JOINT RightHand
								{
									OFFSET 25.199783 0.000138 0.000434
									CHANNELS 3 Zrotation Yrotation Xrotation
									End Site
									{
										OFFSET 0.000000 0.000000 0.000000
									}
								}
							}
						}
					}
				}
			}
		}
	}
}
MOTION
Frames: 14
Frame Time: 0.016667
-297.572508 0.000000 -495.722444 0.000000 171.204199 0.000000 0.073963 81.312149 2.307883 102.402860 2.962184 -179.813765 151.200812 -18.451708 171.093411 -51.504021 -2.764924 -1.814170 79.604672 0.466013 -3.259900 21.454553 0.003091 0.000000 160.111136 13.750107 -178.147043 -69.551399 -2.631547 3.742625 80.705542 1.769072 17.704579 21.454557 -0.003108 -0.000019 13.271928 -0.931481 -0.220284 16.537667 -1.821845 -0.571666 16.219398 -1.825128 -0.560637 5.678955 7.394430 3.374872 -32.804752 -5.210428 7.233487 -177.323950 -84.277058 -4.310081 -17.926381 40.274158 17.572190 -47.655981 -21.079796 2.080687 0.118658 -20.574229 6.812382 158.602277 74.434967 -20.484238 3.350357 -56.459667 -33.099864 -56.353568 22.523140 -2.510299 0.922680 13.414791 -25.122210 
-298.108130 0.000000 -495.328154 0.000000 171.298690 0.000000 -0.208451 81.798632 2.446999 101.868465 3.214216 -179.423350 151.246270 -18.181057 171.216637 -50.503569 -2.856338 -1.794862 79.443386 0.531712 -2.941716 21.454552 0.003091 -0.000000 160.683457 13.487520 -178.968327 -68.051809 -2.498667 3.313544 80.231688 2.200331 17.930112 21.454557 -0.003112 -0.000018 13.269700 -0.858807 -0.305546 16.533655 -1.665068 -0.730882 16.215420 -1.669313 -0.720797 5.300259 7.445494 3.315122 -33.009367 -5.187945 7.202777 -176.976505 -84.364734 -4.661868 -18.071310 39.721273 16.330281 -48.733423 -21.347878 2.131450 0.278686 -21.376613 6.552307 158.769739 74.297859 -20.320184 3.481112 -56.183887 -33.523252 -56.207629 22.479686 -2.501997 1.959520 11.793253 -25.030760 
-298.590889 0.000000 -494.968057 0.000000 171.430471 0.000000 -0.460777 82.241348 2.604287 101.403146 3.491517 -179.082058 151.301325 -17.981093 171.389049 -49.571934 -2.953322 -1.767885 79.272431 0.581512 -2.664147 21.454553 0.003091 0.000000 161.269987 13.215606 -179.787463 -66.656655 -2.423214 2.752353 79.818935 2.685678 18.016470 21.454558 -0.003112 -0.000018 13.273388 -0.780991 -0.374826 16.541011 -1.500299 -0.857631 16.222811 -1.505312 -0.848539 4.982478 7.525262 3.250480 -33.307956 -5.147027 7.163685 -176.314885 -84.406462 -5.330000 -18.268567 39.287759 14.917985 -49.860370 -21.435039 2.176363 0.457686 -22.176190 5.704428 158.804601 74.162088 -20.291441 3.667813 -55.929576 -33.856041 -56.107951 22.488741 -2.498773 2.872866 10.231913 -24.941001 
-299.020758 0.000000 -494.644216 0.000000 171.593542 0.000000 -0.685805 82.640806 2.744691 100.981080 3.752150 -178.816403 151.353158 -17.785286 171.489425 -48.717487 -2.963520 -1.726416 79.097972 0.607520 -2.435028 21.454552 0.003092 0.000000 161.781103 12.997263 179.378069 -65.392164 -2.365929 2.122072 79.412742 3.170776 17.895798 21.454558 -0.003107 -0.000018 13.273613 -0.710182 -0.420780 16.541098 -1.352834 -0.938917 16.222933 -1.358341 -0.930716 4.783258 7.660106 3.188434 -33.748263 -5.113696 7.140934 -176.186543 -84.426673 -5.460264 -18.436014 39.021515 13.215608 -51.088431 -21.210496 2.205236 0.856471 -23.125919 4.392362 158.954837 74.059233 -20.143183 3.829154 -55.747251 -34.003936 -55.990868 22.506824 -2.495511 3.645065 8.773862 -24.719085 
-299.398252 0.000000 -494.356805 0.000000 171.785077 0.000000 -0.881421 82.992737 2.865125 100.596550 3.995715 -178.617592 151.382782 -17.598910 171.566074 -47.964620 -2.930408 -1.682071 78.931762 0.621533 -2.246389 21.454553 0.003093 0.000000 162.239177 12.809297 178.572250 -64.239752 -2.285569 1.563289 79.047342 3.598288 17.777852 21.454558 -0.003102 -0.000019 13.269878 -0.648992 -0.445911 16.533117 -1.227528 -0.980108 16.214977 -1.233286 -0.972664 4.585639 7.896348 3.114047 -34.135048 -5.120406 7.136854 -177.083008 -84.486218 -4.557002 -18.537822 38.927433 11.629918 -52.287689 -20.952838 2.225926 1.492680 -24.033671 2.619467 159.305774 73.963957 -19.789453 3.913359 -55.622272 -34.036727 -55.811025 22.574199 -2.493693 4.311427 7.602643 -24.289578 
-299.724878 0.000000 -494.103474 0.000000 172.000674 0.000000 -1.046314 83.293693 2.972582 100.251361 4.229628 -178.469853 151.379283 -17.442956 171.683490 -47.331745 -2.915071 -1.646484 78.784112 0.635558 -2.085967 21.454554 0.003093 -0.000000 162.683420 12.627766 177.861438 -63.179892 -2.148855 1.193799 78.767826 3.928013 17.869002 21.454557 -0.003103 -0.000019 13.263632 -0.597719 -0.455358 16.520111 -1.124224 -0.991501 16.201982 -1.130053 -0.984680 4.280546 8.258988 3.016578 -34.288395 -5.187182 7.150721 -179.104907 -84.617831 -2.519191 -18.576022 38.986963 10.543116 -53.333976 -20.931879 2.258693 2.263799 -24.666948 0.528126 159.862167 73.844452 -19.226820 3.894950 -55.527455 -34.032703 -55.550044 22.718841 -2.494328 4.907027 6.893563 -23.638573 
-300.002295 0.000000 -493.883615 0.000000 172.234661 0.000000 -1.185733 83.548286 3.071578 99.955840 4.451401 -178.372237 151.368124 -17.329192 171.802508 -46.797300 -2.914959 -1.605004 78.653500 0.642758 -1.939841 21.454555 0.003092 -0.000000 163.105614 12.508898 177.343785 -62.232871 -1.940868 0.958594 78.559441 4.179554 18.079039 21.454557 -0.003108 -0.000018 13.255301 -0.556960 -0.454992 16.502980 -1.043259 -0.984866 16.184864 -1.049051 -0.978535 3.966880 8.669627 2.929447 -34.332461 -5.277925 7.190662 179.157078 -84.731271 -0.768033 -18.650800 39.122373 9.715373 -54.286100 -20.974968 2.297447 2.814983 -24.997313 -1.094240 160.476018 73.702600 -18.606240 3.831056 -55.452074 -33.946176 -55.280019 22.835756 -2.492212 5.405402 6.651037 -22.946009 
-300.231328 0.000000 -493.698615 0.000000 172.488074 0.000000 -1.304245 83.762884 3.163140 99.718726 4.661137 -178.330809 151.375241 -17.266270 171.873668 -46.336298 -2.914525 -1.540182 78.536870 0.633756 -1.796747 21.454553 0.003093 0.000000 163.491851 12.498095 177.122935 -61.419240 -1.683843 0.781076 78.393647 4.378486 18.271948 21.454555 -0.003113 -0.000017 13.245010 -0.526216 -0.449404 16.481969 -0.982981 -0.969268 16.163882 -0.988681 -0.963302 3.764668 9.040977 2.885056 -34.426778 -5.344759 7.254621 179.115381 -84.752561 -0.726314 -18.839284 39.259493 8.868041 -55.214874 -20.871643 2.324914 2.841316 -25.089246 -1.562559 160.988098 73.547955 -18.089970 3.787331 -55.392685 -33.736514 -55.082112 22.833997 -2.484652 5.764630 6.827616 -22.416439 
-300.411976 0.000000 -493.550125 0.000000 172.771062 0.000000 -1.397930 83.942818 3.243574 99.535050 4.875431 -178.346625 151.393451 -17.259203 171.909045 -45.949998 -2.908417 -1.451591 78.437031 0.607572 -1.657891 21.454551 0.003094 -0.000000 163.857317 12.522004 177.289581 -60.719554 -1.542587 0.670099 78.253456 4.520216 18.428327 21.454555 -0.003115 -0.000017 13.232738 -0.500311 -0.437343 16.457001 -0.933264 -0.941476 16.138934 -0.938799 -0.935812 3.666214 9.350630 2.857839 -34.568170 -5.349192 7.290274 179.751017 -84.731046 -1.366986 -19.036514 39.409180 8.184127 -56.070736 -20.700912 2.342917 2.511685 -25.064910 -1.263512 161.327291 73.381417 -17.750851 3.780517 -55.358722 -33.507346 -54.981164 22.811949 -2.479594 5.932082 7.323647 -22.154793 
-300.543808 0.000000 -493.439451 0.000000 173.096529 0.000000 -1.461825 84.088721 3.309926 99.399130 5.104035 -178.421897 151.408663 -17.304095 171.933769 -45.651317 -2.895079 -1.344913 78.359904 0.566236 -1.529199 21.454550 0.003095 -0.000000 164.219534 12.505667 177.860906 -60.115739 -1.649109 0.632502 78.143442 4.603947 18.562333 21.454555 -0.003112 -0.000018 13.219308 -0.475364 -0.418566 16.429726 -0.886414 -0.900462 16.111645 -0.891701 -0.895079 3.615594 9.591898 2.815688 -34.697681 -5.273787 7.252166 179.891589 -84.721727 -1.508668 -19.130785 39.599338 7.888206 -56.792174 -20.580323 2.360450 2.086098 -24.998775 -0.750758 161.476773 73.209333 -17.605998 3.788992 -55.361362 -33.352695 -54.970473 22.875795 -2.483647 5.858375 8.040742 -22.215377 
-300.625656 0.000000 -493.367409 0.000000 173.472119 0.000000 -1.495330 84.183472 3.365700 99.317767 5.311623 -178.560617 151.411742 -17.365206 171.964001 -45.473595 -2.878405 -1.233194 78.317953 0.515523 -1.422963 21.454550 0.003094 0.000000 164.575211 12.489196 178.576908 -59.637885 -1.859069 0.595228 78.142254 4.673243 18.705730 21.454557 -0.003109 -0.000018 13.209063 -0.457373 -0.402695 16.408954 -0.852958 -0.866251 16.090850 -0.858037 -0.861069 3.493913 9.757334 2.761420 -34.696158 -5.174583 7.173992 -179.687046 -84.682811 -1.932955 -19.168837 39.826750 7.906272 -57.382925 -20.493054 2.376837 1.697987 -24.754452 -0.163789 161.543303 73.068950 -17.544520 3.688039 -55.405430 -33.184968 -54.974781 22.973493 -2.490535 5.537899 8.941369 -22.535927 
-300.655240 0.000000 -493.335382 0.000000 173.895664 0.000000 -1.497942 84.213327 3.412699 99.299771 5.461998 -178.762222 151.403035 -17.410444 172.006109 -45.437369 -2.865127 -1.127740 78.318724 0.461145 -1.347492 21.454550 0.003092 -0.000000 164.917112 12.524313 179.178768 -59.315463 -2.009343 0.496522 78.313360 4.764687 18.878806 21.454558 -0.003108 -0.000018 13.205030 -0.453026 -0.397843 16.400831 -0.845030 -0.855948 16.082719 -0.850048 -0.850815 3.229988 9.836831 2.704947 -34.484274 -5.105895 7.095675 -178.254605 -84.564191 -3.375806 -19.203080 40.083464 8.128840 -57.847935 -20.399350 2.387944 1.411078 -24.234524 0.455520 161.618136 72.987249 -17.471762 3.380561 -55.480869 -32.918625 -54.926451 23.034531 -2.492975 4.983422 10.009678 -23.011790 
-300.629758 0.000000 -493.347079 0.000000 174.356154 0.000000 -1.469328 84.195808 3.439306 99.344764 5.563483 -179.031864 151.415881 -17.454195 172.036141 -45.491467 -2.868722 -1.025282 78.343375 0.404968 -1.288646 21.454551 0.003091 -0.000000 165.237029 12.582201 179.685297 -59.127301 -2.142824 0.384793 78.584310 4.844165 19.037831 21.454560 -0.003108 -0.000017 13.201489 -0.461867 -0.396238 16.393839 -0.862878 -0.853984 16.075726 -0.867884 -0.848745 3.006263 9.811130 2.651435 -34.202803 -5.043640 7.000862 -177.004064 -84.393689 -4.634966 -19.146122 40.378165 8.607073 -58.134082 -20.301786 2.391600 1.119767 -23.701940 1.053313 161.621085 72.920298 -17.471884 2.986295 -55.526759 -32.661417 -54.857210 23.072753 -2.493090 4.237256 11.262978 -23.481441 
-300.546945 0.000000 -493.407322 0.000000 174.836582 0.000000 -1.408555 84.152737 3.432755 99.449671 5.634497 -179.361387 151.480264 -17.515819 172.030785 -45.577728 -2.895885 -0.918370 78.369527 0.346240 -1.230850 21.454551 0.003091 0.000000 165.532623 12.621540 -179.840609 -59.043288 -2.325134 0.312947 78.874944 4.869109 19.112876 21.454560 -0.003106 -0.000017 13.192740 -0.480686 -0.387493 16.376461 -0.901634 -0.839189 16.058342 -0.906549 -0.833717 3.002200 9.688342 2.603106 -34.002732 -4.969735 6.877891 -177.047193 -84.223852 -4.589042 -18.921633 40.719484 9.415692 -58.183774 -20.223275 2.387704 0.727855 -23.392006 1.557626 161.521319 72.821631 -17.578659 2.635441 -55.490834 -32.522103 -54.821838 23.116883 -2.494889 3.372554 12.710676 -23.791502 
